<?xml version="1.0" encoding="UTF-8"?>
<svg width="1200pt" height="1200pt" version="1.1" viewBox="0 0 1200 1200" xmlns="http://www.w3.org/2000/svg">
 <path d="m584.88 320.41c35.957 0 68.004 16.961 88.797 43.215 26.453-17.785 58.371-28.102 92.574-28.102 91.645 0 166.26 74.613 166.26 166.25 0 40.469-14.68 77.48-38.73 106.27 0.62891 4.8125 0.94531 9.6641 0.94531 14.641 0 29.555-11.578 56.535-30.23 76.75v149.96h24.09c7.9141 0.37109 14.777 7.9102 14.406 15.824-0.37109 7.9141-7.9102 14.777-15.824 14.406h-211.6c-7.9844 0.10547-15.324-7.1289-15.324-15.113s7.3398-15.223 15.324-15.113h22.672v-149.96c-18.648-20.215-30.23-47.195-30.23-76.75 0-1.5156 0.17578-2.9883 0.23438-4.4883l-60.223-73.207c-7.4375 1.5469-15.258 2.125-23.145 2.125-11.965 0-23.402-1.7305-34.242-5.1953l-178.77 79.348c-6.9648 3.1172-16.094-0.074219-19.602-6.8477l-12.988-25.977-49.828 25.031c-7.1133 3.625-16.891 0.42969-20.484-6.6992-3.5977-7.1289-0.35547-16.891 6.7891-20.457l50.066-24.797-11.336-22.672c-3.1484-6.2852-1.1523-14.695 4.4883-18.891l156.81-116.43c13.332-47.766 57.191-83.129 109.11-83.129zm0 30.227c-46.09 0-83.129 37.039-83.129 83.125 0 46.09 37.039 83.125 83.129 83.125 46.09 0 83.129-37.039 83.129-83.125 0-46.09-37.039-83.125-83.129-83.125zm181.37 15.113c-28.727 0-55.086 8.9766-76.988 24.086 5.75 13.555 8.9727 28.32 8.9727 43.926 0 4.5469-0.18359 9.0508-0.70703 13.461l76.754 62.582c2.3555-0.14844 4.6953-0.47266 7.0859-0.47266 44.117 0 82.363 25.625 101.08 62.582 12.48-20.484 19.836-44.309 19.836-70.137 0-75.305-60.723-136.02-136.03-136.02zm-294.26 78.168-124.93 92.57 25.742 51.48 143.59-63.996c-24.652-18.805-41.484-47.52-44.398-80.055zm216.56 35.422c-10.285 23.324-28.168 42.59-50.539 54.551l38.258 46.758c11.215-27.805 32.965-50.289 60.457-62.109zm92.812 60.219c-46.09 0-83.129 37.039-83.129 83.125 0 46.09 37.039 83.125 83.129 83.125 46.09 0 83.129-37.039 83.129-83.125 0-46.086-37.039-83.125-83.129-83.125zm52.898 183.25c-15.836 8.4297-33.77 13.227-52.898 13.227-19.129 0-37.062-4.7969-52.898-13.227v126.58h105.8z" fill="#425db2"/>
</svg>
