<?xml version="1.0" encoding="UTF-8"?>
<svg width="1200pt" height="1200pt" version="1.1" viewBox="0 0 1200 1200" xmlns="http://www.w3.org/2000/svg">
 <path d="m670.43 599.96 264.79-264.32c19.59-19.59 19.59-51.352 0-70.941-19.586-19.59-51.344-19.59-70.93 0l-264.29 264.82-264.29-264.82c-19.586-19.59-51.344-19.59-70.93 0-19.59 19.59-19.59 51.352 0 70.941l264.79 264.32-264.79 264.32c-9.457 9.3789-14.777 22.148-14.777 35.469 0 13.324 5.3203 26.09 14.777 35.473 9.3789 9.457 22.145 14.777 35.465 14.777 13.316 0 26.086-5.3203 35.465-14.777l264.29-264.82 264.29 264.82c9.3789 9.457 22.148 14.777 35.465 14.777 13.32 0 26.086-5.3203 35.465-14.777 9.457-9.3828 14.777-22.148 14.777-35.473 0-13.32-5.3203-26.09-14.777-35.469z" fill="#425db2" fill-rule="evenodd"/>
</svg>
