<?xml version="1.0" encoding="UTF-8"?>
<svg width="1200pt" height="1200pt" version="1.1" viewBox="0 0 1200 1200" xmlns="http://www.w3.org/2000/svg">
 <path d="m762.28 407.21-4.3086-138.61 383.34 93.191-138.42 220.05-18.625-120.47zm-62.199-344.14-76.262 0.12109-19.859 305.02 106.38 24.637zm-146.93 293.11 8.8086-135.24-62.711-15.254 4.2734 138.36zm-111.78-356.18h-76.273l-19.906 305.39 106.43 25.992zm-188.87 1058.9 73.559 23.867v-221.91l-73.559-21.887zm125.03 40.574 80.281 26.062v-225.47l-80.281-23.891zm-333.93-108.19 157.43 50.902-0.003906-272.24 308.28 91.738v280.57l168.67 57.746v-358.34l-633.54-185.76zm220.84-652.5-202.68 268.55 632.18 185.34 223.32-294.66zm708.62 387.13-27.758-179.68-215.83 284.79v359.82l426.94-252.95-0.003906-503.42z" fill="#425db2"/>
</svg>
