<?xml version="1.0" encoding="UTF-8"?>
<svg width="1200pt" height="1200pt" version="1.1" viewBox="0 0 1200 1200" xmlns="http://www.w3.org/2000/svg">
 <g fill="#425db2">
  <path d="m960 336h-720c-12.863 0-24.746-6.8633-31.176-18-6.4336-11.137-6.4336-24.863 0-36 6.4297-11.137 18.312-18 31.176-18h720c12.863 0 24.746 6.8633 31.176 18 6.4336 11.137 6.4336 24.863 0 36-6.4297 11.137-18.312 18-31.176 18z"/>
  <path d="m960 636h-720c-12.863 0-24.746-6.8633-31.176-18-6.4336-11.137-6.4336-24.863 0-36 6.4297-11.137 18.312-18 31.176-18h720c12.863 0 24.746 6.8633 31.176 18 6.4336 11.137 6.4336 24.863 0 36-6.4297 11.137-18.312 18-31.176 18z"/>
  <path d="m960 936h-720c-12.863 0-24.746-6.8633-31.176-18-6.4336-11.137-6.4336-24.863 0-36 6.4297-11.137 18.312-18 31.176-18h720c12.863 0 24.746 6.8633 31.176 18 6.4336 11.137 6.4336 24.863 0 36-6.4297 11.137-18.312 18-31.176 18z"/>
 </g>
</svg>
