<?xml version="1.0" encoding="UTF-8"?>
<svg width="1200pt" height="1200pt" version="1.1" viewBox="0 0 1200 1200" xmlns="http://www.w3.org/2000/svg">
 <path d="m798 325.2c76.801 0 140.4 75.602 140.4 168 0 177.6-214.8 320.4-337.2 381.6-122.4-61.199-337.2-205.2-337.2-381.6 0-92.398 62.398-168 140.4-168 36 0 75.602 25.199 105.6 66l45.602 49.199c22.801 31.199 68.398 31.199 91.199 0l45.602-49.199c29.996-40.801 69.598-66 105.6-66m0-111.6c-79.199 0-150 49.199-196.8 112.8-46.801-63.602-117.6-112.8-196.8-112.8-139.2 0-253.2 126-253.2 280.8 0 321.6 448.8 505.2 448.8 505.2s448.8-184.8 448.8-505.2c2.3984-156-111.6-280.8-250.8-280.8z" fill="#425db2"/>
</svg>
