<?xml version="1.0" encoding="UTF-8"?>
<svg width="1200pt" height="1200pt" version="1.1" viewBox="0 0 1200 1200" xmlns="http://www.w3.org/2000/svg">
 <g fill="#f87171">
  <path d="m1044 140.4h-344.4v-10.801c0-55.199-44.398-99.602-99.602-99.602-55.199 0-99.602 44.398-99.602 99.602v10.801h-344.4c-28.801 0-52.801 24-52.801 52.801s24 52.801 52.801 52.801h888c28.801 0 52.801-24 52.801-52.801s-24-52.801-52.801-52.801z"/>
  <path d="m1005.6 318h-811.2c-10.801 0-19.199 9.6016-18 20.398l92.398 738c7.1992 52.801 51.602 93.602 105.6 93.602h451.2c54 0 98.398-39.602 105.6-93.602l92.398-738c1.2031-10.797-7.1992-20.398-17.996-20.398zm-572.4 696h-2.3984c-16.801 0-30-12-31.199-28.801l-39.602-475.2c-1.1992-18 12-33.602 28.801-34.801 18-1.1992 33.602 12 34.801 28.801l39.602 475.2c-0.003906 16.801-13.203 32.402-30.004 34.801zm199.2-32.398c0 18-14.398 32.398-32.398 32.398s-32.398-14.398-32.398-32.398v-475.2c0-18 14.398-32.398 32.398-32.398s32.398 14.398 32.398 32.398zm169.2 2.3984c-1.1992 16.801-15.602 28.801-31.199 28.801h-2.3984c-18-1.1992-31.199-16.801-28.801-34.801l38.398-474c1.1992-18 16.801-30 34.801-28.801s31.199 16.801 28.801 34.801z"/>
 </g>
</svg>
