<?xml version="1.0" encoding="UTF-8"?>
<svg width="1200pt" height="1200pt" version="1.1" viewBox="0 0 1200 1200" xmlns="http://www.w3.org/2000/svg">
 <path d="m600 0c-330 0-600 270-600 600s270 600 600 600 600-270 600-600-270-600-600-600zm474 540h-132c-6-132-42-252-90-342 126 72 204 198 222 342zm-534-402v402h-168c18-198 90-348 168-402zm0 522v402c-78-54-150-198-168-402h168zm120 402v-402h168c-18 198-90 348-168 402zm0-522v-402c78 54 150 198 168 402zm-318-342c-48 90-78 210-90 342h-126c18-144 96-270 216-342zm-216 462h132c6 132 42 252 90 342-126-72-204-198-222-342zm732 342c48-90 78-210 90-342h132c-24 144-102 270-222 342z" fill="#425db2"/>
</svg>
