<?xml version="1.0" encoding="UTF-8"?>
<svg width="1200pt" height="1200pt" version="1.1" viewBox="0 0 1200 1200" xmlns="http://www.w3.org/2000/svg">
 <g fill="#425db2">
  <path d="m336.73 620.82h154.29v154.29h-154.29z"/>
  <path d="m1064.1 301.22h-341.63v-82.039c0-20.816-15.918-36.734-36.734-36.734h-172.65c-20.816 0-36.734 15.918-36.734 36.734v82.039h-340.41c-20.816 0-36.734 15.918-36.734 36.734v642.86c0 20.816 15.918 36.734 36.734 36.734h928.16c20.816 0 36.734-15.918 36.734-36.734v-642.85c0-20.816-15.918-36.738-36.734-36.738zm-499.59 510.61c0 20.816-15.918 36.734-36.734 36.734h-227.75c-20.816 0-36.734-15.918-36.734-36.734v-227.75c0-20.816 15.918-36.734 36.734-36.734h227.75c20.816 0 36.734 15.918 36.734 36.734zm84.492-416.32h-99.184v-139.59h99.184zm251.02 408.98h-226.53v-73.469h226.53zm0-144.49h-226.53v-73.469h226.53z"/>
 </g>
</svg>
