<?xml version="1.0" encoding="UTF-8"?>
<svg width="1200pt" height="1200pt" version="1.1" viewBox="0 0 1200 1200" xmlns="http://www.w3.org/2000/svg">
 <path d="m171.14 479.02c51.375-0.98438 135.14 4.5 179.86 46.359 21.469 19.875 32.906 48.328 31.125 77.484-1.7344 39.516 4.125 43.5 14.016 50.016 24 16.125 45.75 36.234 48.609 105.52 3.8906 91.641-27.984 181.5-46.5 225 36.047 18.75 74.484 32.391 114.23 40.594 17.297 1.6875 29.906 17.062 28.219 34.312-1.6875 17.297-17.062 29.906-34.312 28.219-2.1562-0.046875-4.2656-0.23438-6.375-0.65625-54.891-11.438-107.48-32.016-155.53-60.844h-0.75l-3-2.0156c-142.45-85.594-233.81-235.64-244.4-401.48-10.641-165.84 60.797-326.34 191.16-429.37 1.5938-1.5 3.2812-2.8594 5.1562-4.0312 124.26-95.906 286.03-128.76 437.9-88.922 151.82 39.844 276.66 147.84 337.82 292.45 6.8906 15.891-0.42188 34.406-16.312 41.297s-34.406-0.42188-41.297-16.312c-18.094-43.125-42.797-83.156-73.266-118.64-43.125 22.266-139.13 60.375-235.74 22.641-29.859-11.625-33.891-3.5156-47.25 23.859-8.625 17.625-20.391 41.766-47.391 45h-5.7656c-24.984 0-46.5-20.859-65.625-43.734-64.359-77.25-180.14-95.391-216.89-99.234h0.046875c-72.656 59.906-124.36 141.28-147.74 232.5zm680.34 185.26c-19.266-0.046876-36.703 11.484-44.156 29.25-7.4531 17.766-3.4688 38.297 10.078 52.031 13.547 13.734 33.984 17.953 51.891 10.734 17.859-7.2188 29.625-24.516 29.812-43.781 0.14062-12.75-4.8281-24.984-13.734-34.031-8.9531-9.0938-21.141-14.203-33.891-14.203zm219.37 176.34-130.36 225.74c-18.375 31.828-52.312 51.422-89.062 51.422s-70.688-19.594-89.062-51.422l-130.26-225.74c-45.188-78.328-45.141-174.84 0.09375-253.18 45.234-78.328 128.86-126.61 219.28-126.61 90.469 0 174.05 48.281 219.32 126.61 45.234 78.328 45.281 174.84 0.046875 253.18zm-109.22-128.11c0.046875-44.625-26.812-84.844-68.016-101.95s-88.641-7.6875-120.19 23.859c-31.547 31.547-41.016 79.031-23.906 120.24 17.109 41.203 57.375 68.016 101.95 67.969 60.797-0.14062 110.02-49.359 110.16-110.11z" fill="#425db2"/>
</svg>
