<?xml version="1.0" encoding="UTF-8"?>
<svg width="1200pt" height="1200pt" version="1.1" viewBox="0 0 1200 1200" xmlns="http://www.w3.org/2000/svg">
 <g fill="#425db2">
  <path d="m600 1150c-145.87 0-285.77-57.945-388.91-161.09-103.14-103.14-161.09-243.04-161.09-388.91s57.945-285.77 161.09-388.91c103.14-103.14 243.04-161.09 388.91-161.09s285.77 57.945 388.91 161.09c103.14 103.14 161.09 243.04 161.09 388.91-0.16406 145.82-58.164 285.62-161.27 388.73-103.11 103.11-242.91 161.11-388.73 161.27zm0-1e3c-119.35 0-233.81 47.41-318.2 131.8s-131.8 198.85-131.8 318.2 47.41 233.81 131.8 318.2 198.85 131.8 318.2 131.8 233.81-47.41 318.2-131.8 131.8-198.85 131.8-318.2c-0.13281-119.31-47.586-233.69-131.95-318.05s-198.74-131.82-318.05-131.95z"/>
  <path d="m850 550h-200v-200c0-17.863-9.5312-34.371-25-43.301-15.469-8.9336-34.531-8.9336-50 0-15.469 8.9297-25 25.438-25 43.301v200h-200c-17.863 0-34.371 9.5312-43.301 25-8.9336 15.469-8.9336 34.531 0 50 8.9297 15.469 25.438 25 43.301 25h200v200c0 17.863 9.5312 34.371 25 43.301 15.469 8.9336 34.531 8.9336 50 0 15.469-8.9297 25-25.438 25-43.301v-200h200c17.863 0 34.371-9.5312 43.301-25 8.9336-15.469 8.9336-34.531 0-50-8.9297-15.469-25.438-25-43.301-25z"/>
 </g>
</svg>
