<svg width="103" height="118" viewBox="0 0 103 118" fill="none" xmlns="http://www.w3.org/2000/svg">
<path d="M102.2 63.8099V87.5699C102.2 87.7922 102.141 88.0105 102.031 88.2034C101.92 88.3962 101.761 88.557 101.57 88.6699L51.73 117.43C51.536 117.538 51.3174 117.596 51.095 117.596C50.8727 117.596 50.654 117.538 50.46 117.43L29.8 105.5C29.606 105.389 29.4446 105.229 29.3323 105.036C29.2199 104.843 29.1605 104.623 29.16 104.4V96.9399V86.7999V79.7599C29.1587 79.6482 29.1871 79.5382 29.2423 79.4411C29.2976 79.344 29.3776 79.2633 29.4743 79.2073C29.571 79.1514 29.6808 79.1221 29.7925 79.1225C29.9042 79.123 30.0138 79.1531 30.11 79.2099L47.55 89.2699V60.8399L23 46.6299V75.0699L25.41 76.4599C25.604 76.5707 25.7654 76.7308 25.8777 76.9239C25.9901 77.1171 26.0495 77.3364 26.05 77.5599V83.8899C26.0539 84.008 26.025 84.1249 25.9665 84.2276C25.9081 84.3303 25.8223 84.4148 25.7188 84.4717C25.6152 84.5287 25.4979 84.5559 25.3799 84.5502C25.2618 84.5446 25.1477 84.5064 25.05 84.4399L16.55 79.5099C16.3572 79.3986 16.1973 79.2381 16.0866 79.0449C15.9759 78.8517 15.9184 78.6326 15.92 78.4099V39.1899C15.9205 38.9664 15.9799 38.7471 16.0923 38.5539C16.2046 38.3608 16.366 38.2007 16.56 38.0899L31.56 29.4199L28.36 27.5599L22.8 24.3599L7.1 33.3999V84.1999L15.85 89.2599V83.9199C15.8487 83.8082 15.8771 83.6981 15.9323 83.6011C15.9876 83.504 16.0676 83.4233 16.1643 83.3673C16.261 83.3113 16.3708 83.2821 16.4825 83.2825C16.5942 83.283 16.7038 83.3131 16.8 83.3699L21.54 86.0899C21.7329 86.2036 21.8927 86.366 22.0032 86.5608C22.1138 86.7555 22.1713 86.9759 22.17 87.1999V99.9999C22.1778 100.119 22.1514 100.239 22.0938 100.344C22.0362 100.449 21.9499 100.535 21.8449 100.593C21.74 100.651 21.6207 100.677 21.5012 100.67C21.3817 100.662 21.2668 100.62 21.17 100.55L15.81 97.4599L0.64 88.6699C0.445983 88.559 0.284645 88.399 0.172275 88.2058C0.0599043 88.0127 0.000479545 87.7933 0 87.5699L0 29.9999C0.000479545 29.7764 0.0599043 29.5571 0.172275 29.3639C0.284645 29.1708 0.445983 29.0107 0.64 28.8999L21.31 16.9999C21.5024 16.8864 21.7217 16.8266 21.945 16.8266C22.1683 16.8266 22.3876 16.8864 22.58 16.9999L27.5 19.8399L34.62 23.9099L37.82 25.7799L43.95 29.3299C44.0479 29.3846 44.1294 29.4643 44.1861 29.561C44.2428 29.6577 44.2728 29.7678 44.2728 29.8799C44.2728 29.992 44.2428 30.1021 44.1861 30.1987C44.1294 30.2954 44.0479 30.3752 43.95 30.4299L26.51 40.4299L51.11 54.6299L75.72 40.5099L51.12 26.2799L48.71 27.6799C48.5173 27.7923 48.2981 27.8516 48.075 27.8516C47.8519 27.8516 47.6327 27.7923 47.44 27.6799L42 24.5099C41.9047 24.4532 41.8257 24.3727 41.7709 24.2762C41.7161 24.1798 41.6873 24.0708 41.6873 23.9599C41.6873 23.849 41.7161 23.74 41.7709 23.6435C41.8257 23.5471 41.9047 23.4666 42 23.4099L50.51 18.5099C50.7027 18.3974 50.9219 18.3382 51.145 18.3382C51.3681 18.3382 51.5873 18.3974 51.78 18.5099L70.15 29.0999L82.8 36.4099L84.1 37.1599L85.72 38.0999C85.9128 38.2112 86.0727 38.3717 86.1834 38.5649C86.2941 38.7581 86.3516 38.9772 86.35 39.1999V56.5499L89.55 54.6999L95.1 51.4799V33.3999L51.11 7.99989L42.37 12.9999L47 15.7099C47.0953 15.7666 47.1743 15.8471 47.2291 15.9435C47.2839 16.04 47.3127 16.149 47.3127 16.2599C47.3127 16.3708 47.2839 16.4798 47.2291 16.5762C47.1743 16.6727 47.0953 16.7532 47 16.8099L42.28 19.5399C42.0876 19.6533 41.8683 19.7132 41.645 19.7132C41.4217 19.7132 41.2024 19.6533 41.01 19.5399L36.07 16.6799L29.9 13.1399C29.8047 13.0832 29.7257 13.0027 29.6709 12.9062C29.6161 12.8098 29.5873 12.7008 29.5873 12.5899C29.5873 12.479 29.6161 12.37 29.6709 12.2735C29.7257 12.1771 29.8047 12.0966 29.9 12.0399L35.24 8.99989L50.47 0.169886C50.6624 0.0564248 50.8817 -0.00341797 51.105 -0.00341797C51.3283 -0.00341797 51.5476 0.0564248 51.74 0.169886L101.56 28.9399C101.751 29.0528 101.91 29.2135 102.021 29.4064C102.131 29.5993 102.19 29.8176 102.19 30.0399V53.9099C102.192 54.1326 102.134 54.3517 102.023 54.5449C101.913 54.7381 101.753 54.8986 101.56 55.0099L96.65 57.8599L95.12 58.7399L89.55 61.9999L86.33 63.8599L84 65.1699L80.24 67.3399C80.143 67.4059 80.0298 67.444 79.9127 67.45C79.7955 67.456 79.679 67.4297 79.5758 67.3739C79.4726 67.3182 79.3867 67.2352 79.3275 67.134C79.2683 67.0327 79.238 66.9172 79.24 66.7999V58.7999V46.6499L54.65 60.8399V89.2799L79.25 75.0799V72.2799C79.2505 72.0576 79.3088 71.8393 79.4193 71.6464C79.5297 71.4535 79.6885 71.2928 79.88 71.1799L85.37 67.9999C85.4677 67.9333 85.5818 67.8952 85.6999 67.8895C85.8179 67.8839 85.9352 67.9111 86.0388 67.968C86.1423 68.025 86.2281 68.1095 86.2865 68.2122C86.345 68.3149 86.3739 68.4318 86.37 68.5499V78.3699C86.3675 78.5929 86.3073 78.8115 86.1951 79.0043C86.0829 79.1971 85.9227 79.3575 85.73 79.4699L54.73 97.4699L51.82 99.1499C51.626 99.2585 51.4074 99.3155 51.185 99.3155C50.9627 99.3155 50.744 99.2585 50.55 99.1499L47.64 97.4599L35.64 90.5799L35.45 90.4599V100.58L51.1 109.58L95.1 84.1899V74.1199L90.48 76.7899C90.3832 76.8605 90.2683 76.902 90.1488 76.9097C90.0293 76.9173 89.91 76.8907 89.8051 76.833C89.7001 76.7752 89.6138 76.6888 89.5562 76.5837C89.4986 76.4787 89.4722 76.3594 89.48 76.2399V70.7799C89.4792 70.5587 89.5371 70.3413 89.6478 70.1498C89.7584 69.9583 89.9179 69.7996 90.11 69.6899L95.05 66.8299L101.18 63.2599C101.277 63.183 101.394 63.1361 101.517 63.1251C101.639 63.1141 101.763 63.1395 101.872 63.1981C101.98 63.2567 102.069 63.3459 102.128 63.4547C102.186 63.5634 102.211 63.687 102.2 63.8099Z" fill="#09171E"/>
</svg>
