<?xml version="1.0" encoding="UTF-8"?>
<svg width="1200pt" height="1200pt" version="1.1" viewBox="0 0 1200 1200" xmlns="http://www.w3.org/2000/svg">
 <path d="m728.22 663.05 86.422-192.68-194.1 86.422c-87.84-14.168-162.93 60.922-148.76 148.76l-86.422 192.68 192.68-86.422c87.84 15.586 164.34-60.922 150.18-148.76zm-158.68 52.422c-41.086-41.086 21.25-102.01 60.922-62.336 41.086 41.086-21.25 102.01-60.922 62.336zm29.754 216.77 31.168 68.004h-60.922zm0-495.87-29.754-68.004h60.922zm249.35 247.93 66.59-29.754v59.504l-66.59-29.754zm-497.29 0-68.004 29.754v-59.504l68.004 29.754zm368.36-495.87c38.254-85.008-24.086-184.18-120.43-184.18-94.922 0-157.26 99.172-119.01 184.18-399.53 96.34-522.79 597.88-225.27 871.31 187.01 172.84 477.45 179.93 672.96 15.586 317.36-266.35 199.77-787.72-208.27-886.89zm-120.43-103.43c48.172 0 69.422 59.504 32.586 90.672-21.25-1.418-42.504-1.418-63.754 0-36.836-31.168-17-90.672 31.168-90.672zm-253.6 869.89c-242.27-226.68-83.59-641.79 253.6-641.79 348.52 0 502.95 437.78 236.6 657.38-144.51 117.59-352.77 111.93-490.2-15.586z" fill="#2C94D9" fill-rule="evenodd"/>
</svg>
