<svg width="1600" height="1600" viewBox="0 0 1600 1600" fill="none" xmlns="http://www.w3.org/2000/svg">
<path d="M1078.64 784.333C1110.3 705.584 1130.79 628.653 1131.95 557.28C1127.25 302 909.685 75.6 643.592 80.0667C377.499 84.499 167.365 318.12 172.085 573.467C182.309 876.413 593.659 1335.32 655.125 1520.01C671.011 1478.08 700.423 1426.19 736.855 1367.76C708.245 1312.72 691.975 1250.25 691.975 1184.01C691.975 967.92 864.241 791.44 1078.63 784.347L1078.64 784.333ZM651.973 784.057C528.312 784.057 428.04 683.817 428.04 560.124C428.04 436.463 528.327 336.191 651.973 336.191C775.656 336.191 875.92 436.477 875.92 560.124C875.92 683.821 775.66 784.057 651.973 784.057Z" fill="#DC2626"/>
<path d="M1091.99 848C906.4 848 755.987 998.4 755.987 1184C755.987 1369.57 906.4 1520 1091.99 1520C1277.57 1520 1427.99 1369.57 1427.99 1184C1427.99 998.4 1277.57 848 1091.99 848ZM1246.56 1273.75C1264.47 1291.65 1264.47 1320.66 1246.56 1338.56C1237.62 1347.51 1225.89 1351.97 1214.16 1351.97C1202.45 1351.97 1190.72 1347.51 1181.79 1338.56L1092.01 1248.79L1002.24 1338.58C993.279 1347.54 981.581 1352 969.868 1352C958.139 1352 946.395 1347.54 937.467 1338.58C919.56 1320.69 919.56 1291.65 937.467 1273.78L1027.18 1184L937.404 1094.23C919.497 1076.32 919.497 1047.31 937.404 1029.41C955.289 1011.54 984.316 1011.54 1002.19 1029.41L1091.98 1119.18L1181.74 1029.41C1199.65 1011.54 1228.67 1011.54 1246.56 1029.41C1264.47 1047.31 1264.47 1076.32 1246.56 1094.23L1156.78 1184L1246.56 1273.75Z" fill="#DC2626"/>
</svg>
