<?xml version="1.0" encoding="UTF-8"?>
<svg width="1200pt" height="1200pt" version="1.1" viewBox="0 0 1200 1200" xmlns="http://www.w3.org/2000/svg">
 <path d="m957.87 582.42-23.672-90.609c-2.8359-10.852-12.562-18.34-23.73-18.34h-0.38672c-11.332 0.17578-21.023 8.0156-23.543 19.066l-33.48 146.48-38.531-240.8c-1.9219-12-12.094-20.66-24.223-20.66h-0.16406c-12.199 0.082032-22.348 8.8945-24.117 20.965l-54.375 369.6-57.035-467.79c-1.5234-12.516-11.754-21.574-24.352-21.574h-0.10547c-12.645 0.046875-22.852 9.2109-24.281 21.773l-74.332 655.09-76.934-807.8c-1.207-12.668-11.707-22.207-24.422-22.207h-0.058594c-12.75 0.023438-23.227 9.6211-24.387 22.324l-57.141 629.38-34.957-327.75c-1.3359-12.539-11.461-21.773-24.082-21.938h-0.33984c-12.457 0-22.652 8.9062-24.305 21.293l-17.801 133.49h-97.113v35.156h106.41c12.246 0 22.699-9.1523 24.328-21.293l7.3359-54.984 36.984 346.7c1.3594 12.738 11.602 21.938 24.387 21.938h0.21094c12.879-0.10547 23.074-9.4922 24.246-22.324l56.543-622.8 75.762 795.45c1.2188 12.75 11.391 22.102 24.211 22.219h0.24609c12.703 0 22.934-9.1172 24.363-21.773l75.633-666.56 55.664 456.61c1.5 12.34 11.625 21.41 24.059 21.562h0.31641c12.293 0 22.465-8.7773 24.258-20.965l55.805-379.29 36.246 226.55c1.8867 11.766 11.508 20.262 23.414 20.648 11.883 0.36328 22.078-7.4414 24.738-19.055l36.012-157.55 14.777 56.578c2.8242 10.793 12.586 18.34 23.742 18.34h100.31v-35.156h-92.133z" fill="#425db2"/>
</svg>
