<svg width="736" height="419" viewBox="0 0 736 419" fill="none" xmlns="http://www.w3.org/2000/svg">
<path d="M282.972 413.568C282.972 418.43 276.735 420.431 273.906 416.477L1.92128 36.3992C0.314346 34.1537 0.831987 31.0306 3.07748 29.4235L33.9817 7.30596C36.2273 5.69884 39.3505 6.21643 40.9576 8.46203L225.914 266.9C228.744 270.854 234.98 268.852 234.98 263.99L234.966 11.7663C234.966 7.02721 240.944 4.9468 243.886 8.66219L454.101 274.147C457.043 277.862 463.02 275.783 463.021 271.044L463.063 5.00601C463.064 0.0917322 469.411 -1.87309 472.188 2.18131L734.173 384.671C735.734 386.949 735.152 390.061 732.873 391.621L701.525 413.091C699.247 414.651 696.135 414.069 694.575 411.791L520.164 157.17C517.387 153.115 511.04 155.081 511.039 159.995L511.025 408.949C511.025 413.688 505.047 415.768 502.106 412.052L291.891 146.581C288.949 142.865 282.971 144.946 282.971 149.685L282.972 413.568Z" fill="#425DB2"/>
</svg>
