<?xml version="1.0" encoding="UTF-8"?>
<svg width="1200pt" height="1200pt" version="1.1" viewBox="0 0 1200 1200" xmlns="http://www.w3.org/2000/svg">
 <path d="m1142.5 592.08c-12.84-3.4805-26.039 3.9609-29.52 16.801-13.801 50.398-57.238 155.4-103.44 158.28-16.559 1.3203-61.32-12.719-122.28-161.04-55.441-134.88-108.24-195.36-166.08-190.68-79.199 6.6016-119.28 140.52-130.44 185.4-0.83984 1.4414-1.4414 3.1211-1.9219 4.8008-13.922 50.398-57.84 155.52-104.4 158.28-16.68 1.0781-61.922-12.602-123.36-161.16-55.797-134.76-108.96-195.24-167.16-190.56-86.039 7.1992-126.24 163.2-133.32 194.4-3 12.961 5.0391 25.801 18 28.801 12.961 3 25.801-5.0391 28.801-18 14.641-63.359 52.441-154.2 90.602-157.32 15.121-1.1992 57 11.879 118.8 161.04 54.602 132 110.4 194.16 170.76 190.68 84.238-5.1602 132.48-143.16 144.96-183.96 1.4414-2.1602 2.3984-4.6797 3-7.3203 14.16-61.559 52.441-154.2 89.762-157.32 15-1.0781 56.398 12 117.6 161.04 52.68 128.4 106.68 190.92 164.64 190.92 1.6797 0 3.3594 0 5.0391-0.12109 92.762-5.6406 141.6-174.36 146.88-193.56 3.3516-12.715-4.0898-25.918-16.93-29.398z" fill="#425db2"/>
</svg>
