<?xml version="1.0" encoding="UTF-8"?>
<svg width="1200pt" height="1200pt" version="1.1" viewBox="0 0 1200 1200" xmlns="http://www.w3.org/2000/svg">
 <g fill="#2C94D9">
  <path d="m931.07 167.13c-182.84-182.84-479.3-182.84-662.14 0s-182.84 479.3 0 662.14l331.07 340.73 331.07-340.73c182.85-182.84 182.85-479.29 0-662.14zm-331.07 677.61c-191.39 0-346.54-155.15-346.54-346.54 0-191.39 155.15-346.54 346.54-346.54s346.54 155.15 346.54 346.54c0 191.39-155.15 346.54-346.54 346.54z"/>
  <path d="m853.77 465.16-238.23-201.61c-8.9648-7.5859-22.102-7.5859-31.066 0l-238.24 201.61c-10.574 8.9492-4.2461 26.223 9.6055 26.223h67.148v186.27c0 12.84 10.41 23.25 23.25 23.25h84.664c12.84 0 23.25-10.41 23.25-23.25v-85.891c0-25.32 20.527-45.848 45.848-45.848 25.32 0 45.848 20.527 45.848 45.848v85.891c0 12.84 10.41 23.25 23.25 23.25h84.664c12.84 0 23.25-10.41 23.25-23.25l0.007813-186.27h67.148c13.852 0 20.18-17.277 9.6055-26.227z"/>
 </g>
</svg>
