<?xml version="1.0" encoding="UTF-8"?>
<svg width="1200pt" height="1200pt" version="1.1" viewBox="0 0 1200 1200" xmlns="http://www.w3.org/2000/svg">
 <path d="m128.91 677.34h185.16v426.56c0 22.031 16.641 39.844 38.672 39.844h187.5c22.031 0 41.016-17.812 41.016-39.844v-426.56h289.45c10.547 0 20.625-4.4531 27.891-11.719l200.39-197.58c7.7344-7.5 11.953-17.812 11.953-28.594s-4.4531-21.094-11.953-28.359l-200.39-195.47c-7.5-7.2656-17.344-11.953-27.891-11.953h-289.45v-107.58c0-22.031-18.984-39.844-41.016-39.844h-187.5c-22.031 0-38.672 17.812-38.672 39.844v107.81h-185.16c-22.031 0-39.844 18.984-39.844 41.016v392.11c0 22.031 17.812 40.312 39.844 40.312zm372.66 386.72h-107.81v-386.72h107.81zm-107.81-928.12h107.81v67.969h-107.81zm-225 147.66h685.78l159.61 155.86-159.84 158.2h-685.55z" fill="#FFFFFF"/>
</svg>
