<?xml version="1.0" encoding="UTF-8"?>
<svg width="1200pt" height="1200pt" version="1.1" viewBox="0 0 1200 1200" xmlns="http://www.w3.org/2000/svg">
 <path d="m648.31 738.95-32.516-32.312-32.473-32.359 119.39-54.125zm-152.87 87.453 54.395-118.8 64.988 64.668zm245.19-275.16-207.91 94.266c-2.4648 1.1172-4.6641 2.6484-6.5625 4.4688-0.125 0.12109-0.26172 0.22266-0.38672 0.34375-0.17578 0.17969-0.33203 0.37891-0.50781 0.56641-1.7578 1.8516-3.2461 3.9805-4.3398 6.3633l-94.73 206.89c-4.0938 8.9297-2.1758 19.453 4.7969 26.391 4.5312 4.5117 10.582 6.8945 16.727 6.8945 3.3086 0 6.6523-0.69141 9.7969-2.1172l207.91-94.266c2.4688-1.1211 4.668-2.6523 6.5664-4.4727 0.125-0.12109 0.26172-0.22266 0.38672-0.34375 0.17578-0.17969 0.33203-0.37891 0.50781-0.5625 1.7578-1.8555 3.2461-3.9844 4.3398-6.3672l94.73-206.89c4.0898-8.9336 2.1758-19.453-4.7969-26.395-6.9766-6.9414-17.543-8.8477-26.523-4.7734zm-141.56 601.7c-238.08 0-431.78-192.75-431.78-429.66 0-232.95 187.25-423.18 419.84-429.5 0.49219-0.011719 0.98047-0.027344 1.4688-0.039062 3.4258-0.082032 6.8594-0.12891 10.301-0.12891 0.40234 0 0.80859 0.011719 1.2148 0.011719 2.6289 0.003906 5.2539 0.046875 7.875 0.10156 1.6914 0.035157 3.3906 0.078126 5.0898 0.13281 0.93359 0.03125 1.8633 0.074219 2.7969 0.10938 14.957 0.59375 29.957 1.9492 44.785 4.0703 0.18359 0.027344 0.36719 0.015626 0.55078 0.039063 208.75 30.07 369.64 209.27 369.64 425.2 0 236.92-193.7 429.66-431.78 429.66m-41.309-904.65v-35.324c0-22.668 18.531-41.105 41.309-41.105 22.777 0 41.309 18.438 41.309 41.105v35.375c-6.7461-0.57812-13.531-1.0156-20.352-1.3086-0.71875-0.03125-1.4336-0.054687-2.1523-0.082031-2.7227-0.10547-5.4492-0.20703-8.1836-0.26562-2.6562-0.0625-5.3047-0.085938-7.9531-0.10156-0.89062-0.003907-1.7734-0.03125-2.668-0.03125h-0.19531-0.22266c-3.8164 0-7.6445 0.058593-11.477 0.14844-0.64062 0.015625-1.2773 0.042969-1.9141 0.0625-3.2539 0.089844-6.5117 0.21094-9.7695 0.36719-0.86719 0.042969-1.7305 0.09375-2.5977 0.14063-3.1328 0.16797-6.2656 0.36328-9.3945 0.59375-0.72656 0.054687-1.4492 0.10547-2.1758 0.16016-1.1875 0.09375-2.375 0.16406-3.5625 0.26562m41.309-201.23c47.809 0 86.703 38.703 86.703 86.277 0 13.199-3.0859 26.082-8.7773 37.707-0.003906-0.003907-0.007813-0.011719-0.007813-0.011719-0.84375-1.5508-1.7461-3.0586-2.6797-4.5469-0.25781-0.41016-0.52344-0.81641-0.78906-1.2227-0.73828-1.1406-1.5039-2.2617-2.293-3.3633-0.26562-0.36328-0.51953-0.73438-0.78516-1.0938-1.0312-1.3945-2.0977-2.7617-3.207-4.0898-0.19531-0.23438-0.40234-0.45703-0.60156-0.6875-0.94141-1.1094-1.9141-2.1914-2.9102-3.25-0.35547-0.37891-0.71484-0.75391-1.0742-1.125-0.98828-1.0117-2-2.0039-3.0352-2.9688-0.25391-0.23828-0.5-0.48438-0.76172-0.72266-1.2734-1.1602-2.5859-2.2812-3.9258-3.3672-0.34766-0.28125-0.71094-0.55469-1.0625-0.83203-1.0547-0.82812-2.125-1.6328-3.2148-2.4141-0.42188-0.29688-0.83984-0.59766-1.2617-0.89062-1.3906-0.95703-2.8008-1.8867-4.2461-2.7695-0.050781-0.027344-0.10156-0.0625-0.15234-0.097656-1.4922-0.90234-3.0195-1.7461-4.5664-2.5625-0.45312-0.23828-0.91016-0.46875-1.375-0.69922-1.1992-0.60547-2.4141-1.1875-3.6484-1.7383-0.42188-0.19531-0.84766-0.39062-1.2773-0.57812-1.6055-0.69141-3.2383-1.3477-4.8945-1.9453-0.31641-0.10938-0.63281-0.20703-0.94531-0.31641-1.3828-0.48438-2.7852-0.92969-4.2031-1.3477-0.51172-0.15234-1.0234-0.29297-1.5391-0.43359-1.4219-0.39062-2.8594-0.74609-4.3047-1.0664-0.33984-0.074219-0.66797-0.16016-1.0078-0.23047-1.7578-0.36719-3.5391-0.67578-5.332-0.93359-0.46094-0.066406-0.92578-0.11328-1.3906-0.17578-1.4023-0.17969-2.8203-0.32812-4.2461-0.44531-0.53125-0.042969-1.0547-0.085938-1.5859-0.12109-1.8516-0.11328-3.7188-0.19141-5.6016-0.19141-1.8789 0-3.7461 0.078124-5.5977 0.19141-0.53125 0.035156-1.0586 0.078125-1.5859 0.12109-1.4258 0.11719-2.8438 0.26562-4.2461 0.44531-0.46484 0.0625-0.92969 0.10938-1.3906 0.17578-1.7969 0.25781-3.5781 0.56641-5.332 0.93359-0.33984 0.070313-0.67188 0.15625-1.0078 0.23047-1.4492 0.32031-2.8828 0.67578-4.3047 1.0664-0.51562 0.14062-1.0273 0.28125-1.5391 0.43359-1.418 0.41797-2.8203 0.86328-4.207 1.3477-0.30859 0.10938-0.62891 0.20703-0.94141 0.31641-1.6562 0.59766-3.2891 1.2539-4.8945 1.9453-0.42969 0.1875-0.85547 0.38281-1.2812 0.57812-1.2305 0.55078-2.4453 1.1328-3.6484 1.7383-0.46094 0.23047-0.91797 0.46094-1.3711 0.69922-1.5469 0.81641-3.0742 1.6602-4.5664 2.5625-0.050781 0.035156-0.10156 0.070312-0.15234 0.097656-1.4492 0.88281-2.8555 1.8125-4.2461 2.7695-0.42578 0.29297-0.84375 0.59375-1.2617 0.89062-1.0898 0.78125-2.1641 1.5859-3.2188 2.4141-0.34766 0.27734-0.71094 0.55078-1.0586 0.83203-1.3398 1.0859-2.6523 2.207-3.9258 3.3672-0.26172 0.23828-0.50781 0.48437-0.76172 0.72266-1.0352 0.96484-2.0469 1.957-3.0352 2.9688-0.36328 0.37109-0.72266 0.74609-1.0742 1.125-1 1.0586-1.9727 2.1406-2.9102 3.25-0.19922 0.23047-0.40625 0.45312-0.60156 0.6875-1.1094 1.3281-2.1758 2.6953-3.2109 4.0898-0.26172 0.35937-0.51562 0.73047-0.78125 1.0938-0.78906 1.1016-1.5547 2.2227-2.293 3.3633-0.26562 0.40625-0.53125 0.8125-0.78906 1.2227-0.93359 1.4883-1.8359 2.9961-2.6797 4.5469 0 0-0.003906 0.007812-0.007812 0.011719-5.6914-11.625-8.7773-24.508-8.7773-37.707 0-47.574 38.895-86.277 86.699-86.277m88.602 207.7v-21.512c28.594-25.172 45.391-61.652 45.391-99.91 0-73.523-60.109-133.34-133.99-133.34-73.879 0-133.99 59.812-133.99 133.34 0 38.258 16.797 74.738 45.391 99.91v21.512c-221.98 41.477-390.47 235.77-390.47 468.52 0 262.87 214.91 476.72 479.07 476.72 264.16 0 479.07-213.86 479.07-476.72 0-232.75-168.5-427.04-390.47-468.52m-64.953 804.4v-46.445c0-12.996-10.59-23.527-23.648-23.527-13.055 0-23.645 10.531-23.645 23.527v46.445c-167.77-11.582-302.25-145.4-313.89-312.35h46.676c13.059 0 23.645-10.539 23.645-23.531 0-12.996-10.586-23.527-23.645-23.527h-46.676c11.641-166.96 146.12-300.78 313.89-312.36v46.441c0 12.996 10.59 23.531 23.645 23.531 13.059 0 23.648-10.535 23.648-23.531v-46.441c167.77 11.578 302.25 145.4 313.89 312.36h-46.672c-13.059 0-23.645 10.531-23.645 23.527 0 12.992 10.586 23.531 23.645 23.531h46.672c-11.641 166.95-146.12 300.77-313.89 312.35m-23.648-719.66c-212.66 0-385.66 172.16-385.66 383.78 0 211.61 173.01 383.78 385.66 383.78 212.66 0 385.67-172.16 385.67-383.78 0-211.62-173.01-383.78-385.67-383.78" fill="#425db2" fill-rule="evenodd"/>
</svg>
