<?xml version="1.0" encoding="UTF-8"?>
<svg width="1200pt" height="1200pt" version="1.1" viewBox="0 0 1200 1200" xmlns="http://www.w3.org/2000/svg">
 <path d="m600 60c122.64-0.26172 241.68 41.445 337.33 118.2l87.738-87.738c2.8164-2.8164 6.6406-4.4023 10.625-4.3984 3.9844 0 7.8086 1.582 10.625 4.3984 2.8203 2.8203 4.4023 6.6406 4.4023 10.629v285.02c0 3.9844-1.5859 7.8086-4.4023 10.625-2.8203 2.8203-6.6406 4.4023-10.625 4.4023h-285.02c-3.9844 0-7.8047-1.582-10.625-4.3984-2.8164-2.8203-4.4023-6.6406-4.4023-10.629 0-3.9844 1.582-7.8086 4.4023-10.625l94.922-94.922v-0.003906c-79.133-58.312-177.12-85.141-274.92-75.277-97.805 9.8633-188.45 55.715-254.35 128.66-65.898 72.941-102.34 167.77-102.26 266.07h-143.43c-0.070312-94.809 24.844-187.96 72.227-270.08 47.387-82.121 115.57-150.3 197.69-197.69 82.117-47.383 175.27-72.297 270.08-72.227zm363.38 699.11c-31.941 72.879-85.059 134.47-152.46 176.77-67.398 42.301-145.96 63.352-225.48 60.422s-156.32-29.707-220.42-76.852l94.922-94.926c2.8203-2.8164 4.4023-6.6406 4.4023-10.625 0-3.9883-1.5859-7.8086-4.4023-10.629-2.8203-2.8164-6.6406-4.3984-10.625-4.3984h-285.02c-3.9844 0-7.8047 1.582-10.625 4.4023-2.8164 2.8164-4.4023 6.6406-4.4023 10.625v285.02c0 3.9883 1.582 7.8086 4.4023 10.629 2.8164 2.8164 6.6406 4.4023 10.625 4.4023s7.8086-1.5859 10.625-4.4023l87.738-87.738c106.45 85.223 241.21 127.01 377.2 116.96 135.99-10.047 263.15-71.18 355.92-171.12 92.773-99.941 144.29-231.29 144.21-367.65h-143.43c0.12891 54.766-11.176 108.96-33.184 159.11z" fill="#FFFFFF"/>
</svg>
