<?xml version="1.0" encoding="UTF-8"?>
<svg width="1200pt" height="1200pt" version="1.1" viewBox="0 0 1200 1200" xmlns="http://www.w3.org/2000/svg">
 <g fill="#FFFFFF">
  <path d="m500 900c220.91 0 400-179.09 400-400s-179.09-400-400-400-400 179.09-400 400 179.09 400 400 400zm0-100c165.68 0 300-134.32 300-300s-134.32-300-300-300-300 134.32-300 300 134.32 300 300 300z" fill-rule="evenodd"/>
  <path d="m745.29 815.99c26.41-20.527 50.18-44.297 70.711-70.707l237.56 237.56c19.527 19.523 19.527 51.184 0 70.711-19.527 19.527-51.184 19.527-70.707 0z"/>
 </g>
</svg>
