<svg width="1564" height="1474" viewBox="0 0 1564 1474" fill="none" xmlns="http://www.w3.org/2000/svg">
<path fill-rule="evenodd" clip-rule="evenodd" d="M857.25 322.322L862.421 488.655L1128.81 553.649L1151.16 698.214L1317.26 434.152L857.25 322.322ZM696.266 75.8298L787.781 75.6845L800.092 471.421L672.435 441.856L696.266 75.8298ZM622.035 265.13L611.464 427.419L551.909 412.858L546.781 246.825L622.035 265.13ZM385.799 0H477.327L489.629 397.661L361.912 366.471L385.799 0ZM338.953 1299.33L250.682 1270.69V1006.77L338.953 1033.04V1299.33ZM497.057 1350.65L400.719 1319.38V1051.42L497.057 1080.09V1350.65ZM188.917 1250.63L0 1189.55L1.00332 787.085L761.257 1010V1440.01L558.851 1370.71V1034.03L188.913 923.942L188.917 1250.63ZM21.7922 728.806L265.01 406.544L1048.4 597.621L780.413 951.215L21.7922 728.806ZM1082.05 655.485L1115.36 871.103L1335.38 521.372L1335.38 823.426L1335.38 854.159C1314.54 850.117 1293.02 848 1271 848C1085.41 848 935 998.4 935 1184C935 1240.31 948.847 1293.38 973.323 1339.99L823.052 1429.02V997.236L1082.05 655.485Z" fill="#DC2626"/>
<path d="M1276.5 899C1117.7 899 989 1027.69 989 1186.5C989 1345.29 1117.7 1474 1276.5 1474C1435.3 1474 1564 1345.29 1564 1186.5C1564 1027.69 1435.3 899 1276.5 899ZM1408.76 1263.29C1424.08 1278.61 1424.08 1303.43 1408.76 1318.75C1401.11 1326.41 1391.07 1330.22 1381.04 1330.22C1371.01 1330.22 1360.98 1326.41 1353.34 1318.75L1276.52 1241.94L1199.71 1318.77C1192.04 1326.43 1182.03 1330.25 1172.01 1330.25C1161.97 1330.25 1151.92 1326.43 1144.28 1318.77C1128.96 1303.46 1128.96 1278.61 1144.28 1263.32L1221.05 1186.5L1144.23 1109.68C1128.91 1094.36 1128.91 1069.54 1144.23 1054.22C1159.53 1038.93 1184.37 1038.93 1199.67 1054.22L1276.5 1131.04L1353.3 1054.22C1368.62 1038.93 1393.45 1038.93 1408.76 1054.22C1424.08 1069.54 1424.08 1094.36 1408.76 1109.68L1331.94 1186.5L1408.76 1263.29Z" fill="#DC2626"/>
</svg>
