<?xml version="1.0" encoding="UTF-8"?>
<svg width="1200pt" height="1200pt" version="1.1" viewBox="0 0 1200 1200" xmlns="http://www.w3.org/2000/svg">
 <path d="m996 670.8c-8.3984-6-12-16.801-10.801-27.602 1.1992-14.398 2.3984-28.801 2.3984-43.199s-1.1992-28.801-2.3984-43.199c-1.1992-10.801 2.3984-20.398 10.801-27.602l108-86.398c12-9.6016 14.398-25.199 7.1992-38.398l-87.602-152.4c-7.1992-13.199-22.801-18-36-13.199l-128.4 50.398c-9.6016 3.6016-20.398 2.3984-28.801-3.6016-22.801-16.801-49.199-31.199-75.602-43.199-9.6016-3.6016-16.801-12-18-22.801l-20.398-134.4c-1.1992-14.398-14.398-25.199-28.797-25.199h-175.2c-14.398 0-27.602 10.801-28.801 25.199l-20.398 136.8c-1.1992 9.6016-8.3984 19.199-18 22.801-26.398 12-51.602 26.398-75.602 43.199-8.3984 6-19.199 8.3984-28.801 3.6016l-128.4-50.398c-13.199-4.8008-28.801 0-36 13.199l-87.598 151.2c-7.1992 13.199-4.8008 28.797 7.1992 38.398l108 86.398c8.3984 6 12 16.801 10.801 27.602-1.1992 14.398-2.3984 28.801-2.3984 43.199 0 14.398 1.1992 28.801 2.3984 43.199 1.1992 10.801-2.3984 20.398-10.801 27.602l-108 84c-12 9.6016-14.398 25.199-7.1992 38.398l87.602 152.4c7.1992 13.199 22.801 18 36 13.199l128.4-50.398c9.6016-3.6016 20.398-2.3984 28.801 3.6016 22.801 16.801 49.199 31.199 75.602 43.199 9.6016 3.6016 16.801 12 18 22.801l20.398 136.8c2.3984 14.398 14.398 25.199 28.801 25.199h175.2c14.398 0 27.602-10.801 28.801-25.199l20.398-136.8c1.1992-9.6016 8.3984-19.199 18-22.801 26.398-12 51.602-26.398 75.602-43.199 8.3984-6 19.199-8.3984 28.801-3.6016l128.4 50.398c13.199 4.8008 28.801 0 36-13.199l87.602-152.4c7.1992-13.199 4.8008-28.801-7.1992-38.398zm-396 78c-82.801 0-148.8-67.199-148.8-148.8s66-148.8 148.8-148.8 148.8 66 148.8 148.8-66 148.8-148.8 148.8z" fill="#425db2"/>
</svg>
