<?xml version="1.0" encoding="UTF-8"?>
<svg width="1200pt" height="1200pt" version="1.1" viewBox="0 0 1200 1200" xmlns="http://www.w3.org/2000/svg">
 <g fill="#425db2">
  <path d="m1017.6 511.2-105.6-40.801 46.801-103.2c8.3984-16.801 3.6016-40.801-9.6016-54l-62.398-62.398c-13.199-13.199-37.199-18-54-9.6016l-103.2 46.801-39.602-106.8c-7.1992-18-26.398-31.199-45.602-31.199h-87.602c-19.199 0-38.398 13.199-45.602 31.199l-40.797 106.8-103.2-46.801c-16.801-7.1992-40.801-3.6016-54 9.6016l-62.398 62.398c-13.199 13.199-18 37.199-9.6016 54l46.801 103.2-106.8 39.602c-18 7.1992-31.199 26.398-31.199 45.602v88.801c0 19.199 13.199 38.398 31.199 45.602l106.8 39.602-46.801 103.2c-8.3984 16.801-3.6016 40.801 9.6016 54l62.398 62.398c13.199 13.199 37.199 18 54 9.6016l103.2-46.801 39.602 106.8c7.1992 18 26.398 31.199 45.602 31.199h87.602c19.199 0 38.398-13.199 45.602-31.199l39.602-106.8 103.2 46.801c6 2.3984 12 3.6016 19.199 3.6016 13.199 0 26.398-4.8008 34.801-14.398l62.398-62.398c13.199-13.199 18-37.199 9.6016-54l-45.605-102.01 106.8-39.602c18-7.1992 31.199-26.398 31.199-45.602v-88.801c-1.1992-19.199-14.398-38.398-32.398-44.398zm-15.602 136.8-111.6 42c-9.6016 3.6016-18 12-22.801 21.602-3.6016 9.6016-3.6016 21.602 0 31.199l49.199 108c0 1.1992 0 3.6016-1.1992 4.8008l-62.398 62.398s-2.3984 1.1992-4.8008 1.1992l-108-49.199c-4.8008-2.3984-10.801-3.6016-16.801-3.6016-16.801 0-31.199 9.6016-36 25.199l-39.598 110.4c0 1.1992-2.3984 2.3984-3.6016 2.3984h-87.602c-1.1992 0-3.6016-1.1992-3.6016-2.3984l-42-111.6c-6-15.602-20.398-25.199-36-25.199-6 0-10.801 1.1992-16.801 3.6016l-110.39 49.199c-1.1992 0-3.6016-1.1992-3.6016-1.1992l-62.398-62.398c-1.1992-1.1992-1.1992-3.6016-1.1992-4.8008l49.199-108c4.8008-9.6016 4.8008-21.602 1.1992-31.199-3.6016-9.6016-12-18-22.801-21.602l-110.4-40.801c-1.1992 0-2.3984-2.3984-2.3984-3.6016v-87.602c0-1.1992 1.1992-3.6016 2.3984-3.6016l111.6-42c9.6016-3.6016 18-12 22.801-21.602 3.6016-9.6016 3.6016-21.602-1.1992-31.199l-49.199-108c0-1.1992 0-3.6016 1.1992-4.8008l62.398-62.398s2.3984-1.1992 4.8008-1.1992l108 49.199c4.8008 2.3984 10.801 3.6016 16.801 3.6016 16.801 0 30-9.6016 36-25.199l42-111.6c0-1.1992 2.3984-2.3984 3.6016-2.3984h87.602c1.1992 0 3.6016 1.1992 3.6016 2.3984l42 111.6c6 15.602 20.398 25.199 36 25.199 6 0 10.801-1.1992 16.801-3.6016l109.2-49.199c1.1992 0 3.6016 1.1992 3.6016 1.1992l62.398 62.398c1.1992 1.1992 1.1992 3.6016 1.1992 4.8008l-49.199 108c-4.8008 9.6016-4.8008 21.602 0 31.199 3.6016 9.6016 12 18 22.801 21.602l111.6 42c1.1992 0 2.3984 2.3984 2.3984 3.6016v87.602c-1.207 1.2031-3.6094 3.6016-4.8086 3.6016z"/>
  <path d="m600 456c-79.199 0-144 64.801-144 144s64.801 144 144 144 144-64.801 144-144-64.801-144-144-144zm0 243.6c-55.199 0-99.602-44.398-99.602-99.602 0-55.199 44.398-99.602 99.602-99.602 55.199 0 99.602 44.398 99.602 99.602 0 55.199-44.402 99.602-99.602 99.602z"/>
 </g>
</svg>
