<?xml version="1.0" encoding="UTF-8"?>
<svg width="1200pt" height="1200pt" version="1.1" viewBox="0 0 1200 1200" xmlns="http://www.w3.org/2000/svg">
 <path d="m569.02 268.16c-4.2109 2.7539-6.8789 7.7266-6.8477 12.758v107.28c-5.6133 0.37891-10.094 3.3242-15.113 5.9062v-67.816c0.046874-5.3242-2.9492-10.57-7.5547-13.234-20.113-10.191-43.359-10.637-61.156 0.46875-4.2109 2.7539-6.8789 7.7266-6.8477 12.762v106.57l-15.113 7.7969v-69c0.046876-5.3242-2.9492-10.57-7.5547-13.234-20.113-10.191-43.359-10.637-61.156 0.46875-4.2109 2.7539-6.8789 7.7266-6.8477 12.762v107.75l-135.3 69.234c-4.9375 2.5117-8.2578 7.9258-8.2656 13.469v173.91c0.046876 5.5938 3.4766 11.02 8.5 13.469l385.36 189.04c4.1641 2.0703 9.2969 2.0703 13.461 0l294.68-151.23c4.9375-2.5117 8.2578-7.9258 8.2656-13.469v-113.42c5.9961 0.074219 11.898-3.8984 14.168-9.4531 2.2695-5.5547 0.76562-12.367-3.543-16.539l-128.45-128.55c-4.8984-4.9219-13.359-5.7578-19.125-1.8906l-14.875 9.9336-157.97-86.723v-146.27c0.046876-5.3242-2.9492-10.57-7.5547-13.234-20.113-10.191-43.359-10.637-61.156 0.46875zm38.488 23.867v185.49h-15.113v-185.73c5.5-2.6719 9.8945-1.4688 15.113 0.23438zm-90.672 45.367v185.49h-15.113v-185.73c5.5-2.6719 9.8945-1.4688 15.113 0.23438zm-90.672 45.367v185.49h-15.113v-185.73c5.5-2.6719 9.8945-1.4688 15.113 0.23438zm135.77 37.57c0.48828 23.867 0.23438 48.258 0.23438 72.305 0 7.918 7.1992 15.121 15.113 15.125h45.336c7.9141 0 15.113-7.2031 15.113-15.125v-30.719l125.38 68.996-245.1 115.79c-5.1836 2.4141-8.7344 7.9844-8.7383 13.703v20.086l-224.08-118.15 95.633-49.148v70.18c0 7.918 7.1992 15.121 15.113 15.125h45.336c7.9141 0 15.109-7.2031 15.113-15.125v-108.93l15.113-7.7969v71.359c0 7.918 7.1992 15.121 15.113 15.121h45.336c7.9141 0 15.109-7.2031 15.113-15.121v-110.11zm255.25 115.79 99.883 99.953-275.56 141.54-93.27-112c92.672-50.523 268.95-129.49 268.95-129.49zm-549.7 51.039 45.336 23.867v49.387l22.668 15.125v-52.457l37.781 19.848v47.73l22.668 15.125v-50.805l37.781 19.848v46.078l22.668 15.125v-49.148l60.922 32.137c12.043 3.7031 21.75-5.0117 22.195-16.777l83.117 99.719v98.77l-355.13-174.15zm649.82 82.941v94.52l-264.46 135.64v-94.52zm-604.48 5.4336v60.492l22.668 15.121v-60.492zm60.449 30.246v60.492l22.668 15.125v-60.492zm60.449 30.246v60.492l22.668 15.125v-60.492zm83.117 22.684v37.809l15.113 7.5625v-37.809zm30.223 15.121v37.809l15.113 7.5625v-37.809zm30.223 15.125v37.809l15.113 7.5625v-37.809zm-60.449 15.121v37.809l15.113 7.5625v-37.809zm30.223 15.125v37.809l15.113 7.5625v-37.809zm30.223 15.121v37.809l15.113 7.5625v-37.809z" fill="#425db2"/>
</svg>
