<?xml version="1.0" encoding="UTF-8"?>
<svg width="1200pt" height="1200pt" version="1.1" viewBox="0 0 1200 1200" xmlns="http://www.w3.org/2000/svg">
 <path d="m600 115.5c-151.56 0-287.04 70.004-375.95 179.32-0.93359 0.98438-1.7773 2.0547-2.5312 3.2227-66.262 82.883-106.02 187.84-106.02 301.96 0 113.92 39.621 218.7 105.67 301.52 0.94141 1.5312 2.0273 2.9141 3.2539 4.1406 88.918 109.05 224.23 178.85 375.57 178.85 151.32 0 286.63-69.777 375.54-178.8 0.97266-0.96094 1.7539-2.0938 2.5469-3.2383 66.504-82.961 106.41-188.11 106.41-302.46 0-114.06-39.715-218.96-105.91-301.83-0.82031-1.2734-1.7266-2.4336-2.7461-3.4883-88.91-109.24-224.34-179.18-375.84-179.18zm352.54 745.6c-46.668-20.848-103.12-37.004-165.33-47.812 11.871-57.664 19.004-122.01 20.301-190.49h230.79c-4.5781 88.965-35.781 170.99-85.762 238.3zm-352.54 177.32c-48.086 0-99.609-70.816-131.36-187.32 41.965-5.082 86.117-7.7891 131.36-7.7891s89.398 2.707 131.36 7.7852c-31.754 116.51-83.273 187.32-131.36 187.32zm0-240.71c-48.844 0-96.594 3.0742-142 8.8242-11.32-54.18-18.574-116.02-19.91-183.73h323.81c-1.3359 67.711-8.5898 129.55-19.91 183.73-45.402-5.75-93.148-8.8281-142-8.8281zm-438.3-174.91h230.79c1.3008 68.477 8.4336 132.82 20.301 190.49-62.207 10.805-118.66 26.965-165.33 47.812-49.98-67.305-81.188-149.33-85.762-238.3zm85.762-283.9c46.668 20.848 103.12 37.008 165.33 47.816-11.871 57.664-19.004 122.01-20.301 190.48h-230.79c4.5781-88.965 35.781-170.99 85.762-238.3zm352.54-177.32c48.086 0 99.617 70.82 131.37 187.34-41.973 5.082-86.121 7.7891-131.37 7.7891s-89.398-2.707-131.37-7.7891c31.754-116.51 83.277-187.33 131.37-187.33zm0 240.72c48.848 0 96.594-3.0742 142-8.8281 11.32 54.18 18.574 116.02 19.91 183.73h-323.81c1.3359-67.707 8.5898-129.55 19.91-183.73 45.402 5.7539 93.152 8.8281 142 8.8281zm207.51 174.9c-1.3008-68.477-8.4336-132.82-20.301-190.48 62.207-10.809 118.66-26.969 165.33-47.816 49.98 67.305 81.188 149.34 85.762 238.3zm114.59-274.92c-41.66 17.266-91.043 30.805-145.35 40.051-18.996-71.609-45.801-130.25-77.887-169.87 87.152 20.152 164.46 66.262 223.24 129.82zm-420.96-129.82c-32.086 39.621-58.891 98.254-77.887 169.87-54.305-9.2461-103.69-22.785-145.35-40.047 58.789-63.559 136.08-109.67 223.24-129.82zm-223.24 725.25c41.668-17.262 91.047-30.801 145.35-40.047 18.996 71.602 45.797 130.23 77.879 169.85-87.148-20.152-164.44-66.258-223.22-129.81zm420.98 129.81c32.082-39.621 58.883-98.254 77.879-169.86 54.305 9.2461 103.69 22.785 145.35 40.047-58.781 63.551-136.08 109.66-223.22 129.81z" fill="#425db2"/>
</svg>
