<svg width="114" height="114" viewBox="0 0 114 114" fill="none" xmlns="http://www.w3.org/2000/svg">
<g clip-path="url(#clip0_166_1071)">
<path d="M57 85.5C61.275 85.5 64.125 82.65 64.125 78.375V24.225L80.5125 40.6125C81.9375 42.0375 83.3625 42.75 85.5 42.75C87.6375 42.75 89.0625 42.0375 90.4875 40.6125C93.3375 37.7625 93.3375 33.4875 90.4875 30.6375L61.9875 2.13748C61.275 1.42498 60.5625 0.712476 59.85 0.712476C57.7125 -2.44081e-05 56.2875 -2.44081e-05 54.15 0.712476C53.4375 0.712476 52.725 1.42498 52.0125 2.13748L23.5125 30.6375C20.6625 33.4875 20.6625 37.7625 23.5125 40.6125C26.3625 43.4625 30.6375 43.4625 33.4875 40.6125L49.875 24.225V78.375C49.875 82.65 52.725 85.5 57 85.5Z" fill="url(#paint0_linear_166_1071)"/>
<path d="M106.875 57C102.6 57 99.75 59.85 99.75 64.125V99.75H14.25V64.125C14.25 59.85 11.4 57 7.125 57C2.85 57 0 59.85 0 64.125V99.75C0 107.587 6.4125 114 14.25 114H99.75C107.588 114 114 107.587 114 99.75V64.125C114 59.85 111.15 57 106.875 57Z" fill="url(#paint1_linear_166_1071)"/>
</g>
<defs>
<linearGradient id="paint0_linear_166_1071" x1="57" y1="0.178101" x2="57" y2="85.5" gradientUnits="userSpaceOnUse">
<stop stop-color="#179CE7"/>
<stop offset="1" stop-color="#425DB2"/>
</linearGradient>
<linearGradient id="paint1_linear_166_1071" x1="57" y1="57" x2="57" y2="114" gradientUnits="userSpaceOnUse">
<stop stop-color="#179CE7"/>
<stop offset="1" stop-color="#425DB2"/>
</linearGradient>
<clipPath id="clip0_166_1071">
<rect width="114" height="114" fill="white"/>
</clipPath>
</defs>
</svg>
