<svg width="640" height="800" viewBox="0 0 640 800" fill="none" xmlns="http://www.w3.org/2000/svg">
<path fill-rule="evenodd" clip-rule="evenodd" d="M546.279 89.9006C421.311 -29.9669 218.697 -29.9669 93.7294 89.9006C-21.3314 200.261 -31.7248 375.876 69.5732 498.023L320.001 799.998L570.43 498.023C671.724 375.876 661.33 200.261 546.274 89.9006H546.279Z" fill="url(#paint0_linear_483_2)"/>
<path fill-rule="evenodd" clip-rule="evenodd" d="M277.973 150.275C277.091 146.641 274.177 143.853 270.508 143.134C254.643 140.022 238.347 140.022 222.48 143.134C218.811 143.853 215.897 146.641 215.015 150.275L209.367 173.55C200.787 177.022 192.729 181.681 185.426 187.383L162.456 180.638C158.858 179.576 154.991 180.71 152.527 183.534C141.896 195.711 133.748 209.831 128.514 225.122C127.308 228.666 128.262 232.587 130.978 235.177L148.3 251.708C147.023 260.863 147.023 270.181 148.3 279.355C148.3 279.337 130.978 295.867 130.978 295.867C128.262 298.457 127.308 302.378 128.514 305.922C133.748 321.211 141.896 335.331 152.527 347.511C154.991 350.335 158.858 351.468 162.456 350.407L185.426 343.661C192.71 349.363 200.769 354.004 209.367 357.494L215.015 380.77C215.897 384.403 218.811 387.191 222.48 387.91C238.345 391.022 254.641 391.022 270.508 387.91C274.177 387.191 277.091 384.403 277.973 380.77L283.621 357.494C292.201 354.022 300.259 349.363 307.562 343.661L330.532 350.407C334.13 351.468 337.997 350.335 340.461 347.511C351.092 335.333 359.24 321.213 364.474 305.922C365.697 302.378 364.726 298.457 362.01 295.867L344.688 279.337C345.965 270.181 345.965 260.863 344.688 251.69C344.688 251.708 362.01 235.177 362.01 235.177C364.726 232.587 365.679 228.666 364.474 225.122C359.24 209.833 351.092 195.713 340.461 183.534C337.997 180.71 334.13 179.577 330.532 180.638L307.562 187.383C300.277 181.681 292.219 177.04 283.621 173.55L277.973 150.275ZM246.495 215.732C219.028 215.732 196.721 238.036 196.721 265.506C196.721 292.972 219.025 315.28 246.495 315.28C273.962 315.28 296.269 292.975 296.269 265.506C296.269 238.039 273.964 215.732 246.495 215.732Z" fill="white"/>
<path fill-rule="evenodd" clip-rule="evenodd" d="M446.659 341.604C445.778 337.97 442.864 335.182 439.194 334.463C426.999 332.07 414.462 332.07 402.266 334.463C398.597 335.182 395.665 337.97 394.783 341.604L390.826 357.882C384.998 360.347 379.494 363.531 374.44 367.344L358.377 362.631C354.798 361.57 350.912 362.703 348.448 365.527C340.282 374.899 334.004 385.763 329.975 397.527C328.77 401.07 329.723 404.992 332.439 407.564L344.563 419.13C343.771 425.407 343.771 431.775 344.563 438.07C344.545 438.07 332.439 449.637 332.439 449.637C329.723 452.209 328.77 456.148 329.975 459.673C334.004 471.437 340.263 482.302 348.448 491.673C350.912 494.497 354.798 495.63 358.377 494.569L374.44 489.857C379.494 493.67 384.999 496.854 390.844 499.318C390.826 499.318 394.784 515.597 394.784 515.597C395.665 519.23 398.597 522.018 402.267 522.737C414.462 525.13 426.999 525.13 439.195 522.737C442.864 522.018 445.778 519.23 446.659 515.597L450.616 499.318C456.445 496.854 461.966 493.67 467.021 489.857L483.084 494.569C486.681 495.63 490.548 494.497 493.013 491.673C501.179 482.302 507.457 471.438 511.486 459.673C512.691 456.13 511.738 452.209 509.022 449.637L496.898 438.07C497.689 431.793 497.689 425.425 496.898 419.13L509.022 407.564C511.72 404.992 512.691 401.052 511.486 397.527C507.457 385.763 501.179 374.899 493.013 365.527C490.548 362.703 486.681 361.57 483.084 362.631L467.021 367.344C461.966 363.53 456.445 360.347 450.616 357.882L446.659 341.604ZM420.721 388.876C398.794 388.876 380.986 406.665 380.986 428.611C380.986 450.538 398.793 468.347 420.721 468.347C442.649 468.347 460.456 450.557 460.456 428.611C460.456 406.684 442.649 388.876 420.721 388.876Z" fill="white"/>
<defs>
<linearGradient id="paint0_linear_483_2" x1="320" y1="0" x2="320" y2="799.999" gradientUnits="userSpaceOnUse">
<stop stop-color="#425DB2"/>
<stop offset="1" stop-color="#179CE7"/>
</linearGradient>
</defs>
</svg>
