<svg width="1401" height="1218" viewBox="0 0 1401 1218" fill="none" xmlns="http://www.w3.org/2000/svg">
<path fill-rule="evenodd" clip-rule="evenodd" d="M223.973 148.987H1322.47V148.993C1365.97 148.993 1400.97 184.493 1400.97 227.493V1139.49C1400.97 1182.99 1365.97 1217.99 1322.47 1217.99H145.48C65.4733 1217.99 1.47333 1153.99 0.973328 1073.99V1073.49C0.973328 1033.49 16.9733 997.493 42.9733 970.993C69.4733 944.993 105.473 928.993 145.473 928.993C188.973 928.993 223.973 893.993 223.973 850.493V148.987ZM1096.34 849.115V710.708C1096.4 709.992 1096.26 709.272 1095.92 708.638C1095.58 708.005 1095.06 707.485 1094.43 707.144C1093.79 706.802 1093.07 706.654 1092.36 706.718C1091.64 706.783 1090.96 707.056 1090.4 707.504L1054.69 728.3L1025.91 744.96C1024.79 745.599 1023.86 746.523 1023.22 747.639C1022.58 748.755 1022.24 750.021 1022.24 751.31V783.115C1022.2 783.811 1022.35 784.506 1022.69 785.118C1023.02 785.73 1023.52 786.234 1024.14 786.57C1024.75 786.906 1025.44 787.061 1026.14 787.017C1026.83 786.972 1027.5 786.731 1028.07 786.319L1054.98 770.766V829.426L798.67 977.33L707.505 924.902V865.95L708.612 866.649L778.515 906.727L795.466 916.572C796.596 917.204 797.87 917.536 799.165 917.536C800.461 917.536 801.734 917.204 802.864 916.572L819.816 906.785L1000.4 801.931C1001.52 801.276 1002.45 800.342 1003.11 799.219C1003.76 798.096 1004.11 796.822 1004.13 795.523V738.319C1004.15 737.631 1003.98 736.95 1003.64 736.352C1003.3 735.754 1002.8 735.262 1002.2 734.93C1001.59 734.598 1000.91 734.44 1000.22 734.472C999.535 734.505 998.87 734.727 998.301 735.115L966.32 753.64C965.205 754.297 964.28 755.233 963.637 756.357C962.993 757.481 962.653 758.752 962.651 760.047V776.358L819.35 859.077V693.407L962.592 610.746V681.523V728.125C962.581 728.808 962.757 729.481 963.102 730.071C963.447 730.661 963.947 731.144 964.548 731.469C965.15 731.794 965.828 731.947 966.511 731.912C967.193 731.877 967.852 731.655 968.417 731.271L990.32 718.63L1003.89 710.999L1022.65 700.164L1055.1 681.174L1064.01 676.047L1092.61 659.445C1093.74 658.797 1094.67 657.862 1095.31 656.737C1095.96 655.611 1096.29 654.335 1096.28 653.038V513.989C1096.28 512.694 1095.94 511.423 1095.3 510.299C1094.65 509.175 1093.72 508.239 1092.61 507.581L802.398 339.989C801.277 339.328 800 338.979 798.699 338.979C797.398 338.979 796.121 339.328 795 339.989L706.282 391.426L675.175 409.135C674.62 409.465 674.159 409.934 673.84 410.496C673.521 411.058 673.353 411.693 673.353 412.339C673.353 412.985 673.521 413.62 673.84 414.181C674.159 414.743 674.62 415.212 675.175 415.543L711.117 436.164L739.893 452.824C741.014 453.485 742.291 453.834 743.592 453.834C744.893 453.834 746.17 453.485 747.291 452.824L774.786 436.921C775.342 436.591 775.802 436.122 776.121 435.56C776.44 434.998 776.608 434.363 776.608 433.717C776.608 433.071 776.44 432.436 776.121 431.874C775.802 431.313 775.342 430.844 774.786 430.513L747.816 414.727L798.728 385.601L1054.98 533.562V638.882L1022.65 657.64L1004.01 668.416V567.348C1004.02 566.051 1003.68 564.775 1003.04 563.649C1002.39 562.524 1001.46 561.589 1000.34 560.941L990.903 555.465L983.33 551.096L909.641 508.513L802.631 446.824C801.509 446.169 800.232 445.824 798.932 445.824C797.632 445.824 796.356 446.169 795.233 446.824L745.66 475.368C745.105 475.698 744.645 476.167 744.326 476.729C744.006 477.291 743.839 477.926 743.839 478.572C743.839 479.218 744.006 479.853 744.326 480.414C744.645 480.976 745.105 481.445 745.66 481.776L777.35 500.242C778.472 500.896 779.749 501.242 781.049 501.242C782.348 501.242 783.625 500.896 784.748 500.242L798.786 492.086L942.087 574.979L798.728 657.232L655.427 574.513L757.019 516.261C757.59 515.942 758.064 515.477 758.395 514.914C758.725 514.351 758.9 513.71 758.9 513.057C758.9 512.404 758.725 511.763 758.395 511.199C758.064 510.636 757.59 510.172 757.019 509.853L721.311 489.174L702.67 478.28L661.194 454.572L632.534 438.028C631.413 437.367 630.136 437.018 628.835 437.018C627.534 437.018 626.257 437.367 625.136 438.028L504.728 507.348C503.598 507.994 502.658 508.926 502.004 510.051C501.349 511.177 501.003 512.454 501 513.756V849.115C501.003 850.417 501.349 851.695 502.004 852.82C502.658 853.945 503.598 854.877 504.728 855.523L593.097 906.727L624.32 924.728C624.884 925.135 625.554 925.38 626.25 925.427C626.946 925.467 627.641 925.316 628.252 924.978C628.864 924.64 629.366 924.139 629.702 923.528C630.037 922.916 630.191 922.217 630.146 921.523V846.96C630.153 845.655 629.818 844.371 629.174 843.237C628.53 842.102 627.599 841.156 626.476 840.494L598.864 824.649C598.304 824.318 597.665 824.143 597.015 824.14C596.364 824.138 595.724 824.308 595.161 824.634C594.598 824.96 594.132 825.43 593.81 825.996C593.488 826.561 593.323 827.203 593.33 827.853V858.96L542.359 829.484V533.562L633.816 480.902L666.204 499.543L684.845 510.377L597.466 560.882C596.336 561.528 595.396 562.46 594.742 563.585C594.087 564.711 593.741 565.988 593.738 567.29V795.756C593.729 797.053 594.063 798.33 594.708 799.455C595.353 800.581 596.285 801.516 597.408 802.164L646.922 830.882C647.491 831.27 648.156 831.492 648.844 831.525C649.531 831.558 650.215 831.4 650.818 831.068C651.421 830.736 651.921 830.244 652.261 829.646C652.602 829.047 652.77 828.366 652.748 827.678V790.805C652.745 789.503 652.399 788.225 651.744 787.1C651.09 785.975 650.15 785.042 649.019 784.397L634.981 776.3V610.63L777.99 693.407V859.018L676.398 800.416C675.838 800.085 675.199 799.91 674.549 799.907C673.898 799.905 673.258 800.076 672.695 800.401C672.132 800.727 671.666 801.198 671.344 801.763C671.022 802.329 670.857 802.97 670.864 803.62V844.63V903.698V947.155C670.867 948.454 671.213 949.735 671.868 950.86C672.522 951.984 673.462 952.916 674.592 953.563L794.942 1023.06C796.072 1023.69 797.346 1024.02 798.641 1024.02C799.936 1024.02 801.21 1023.69 802.34 1023.06L1092.67 855.523C1093.78 854.865 1094.71 853.929 1095.36 852.806C1096 851.682 1096.34 850.41 1096.34 849.115Z" fill="url(#paint0_linear_487_8)"/>
<path d="M133.987 12.3199V839.507C85.4866 841.507 39.9866 859.507 0.986633 889.507V142.493C0.986633 71.2426 52.424 11.8679 120.299 0.186597C127.424 -1.0634 133.987 4.99913 133.987 12.3117V12.3199Z" fill="url(#paint1_linear_487_8)"/>
<defs>
<linearGradient id="paint0_linear_487_8" x1="700.97" y1="148.987" x2="700.97" y2="1217.99" gradientUnits="userSpaceOnUse">
<stop stop-color="#425DB2"/>
<stop offset="0.0311001" stop-color="#2C94D9"/>
<stop offset="0.531347" stop-color="#425DB2"/>
<stop offset="1" stop-color="#1C284C"/>
</linearGradient>
<linearGradient id="paint1_linear_487_8" x1="67.4866" y1="0.0223389" x2="67.4866" y2="889.507" gradientUnits="userSpaceOnUse">
<stop offset="0.0310001" stop-color="#425DB2"/>
<stop offset="0.0311001" stop-color="#2C94D9"/>
<stop offset="0.578813" stop-color="#425DB2"/>
<stop offset="1" stop-color="#1C284C"/>
</linearGradient>
</defs>
</svg>
