<svg width="748" height="800" viewBox="0 0 748 800" fill="none" xmlns="http://www.w3.org/2000/svg">
<path fill-rule="evenodd" clip-rule="evenodd" d="M546.275 89.9C421.309 -29.9667 218.695 -29.9667 93.7288 89.9C-21.3312 200.26 -31.7246 375.873 69.5728 498.02L319.999 799.993L433.472 663.164C422.908 640.825 417 615.853 417 589.5C417 494.214 494.221 417 589.5 417C599.151 417 608.617 417.792 617.836 419.315C663.383 308.277 638.329 178.201 546.27 89.9H546.275ZM374.021 246.379L372.599 200.638L499.101 231.391L453.423 304.008L447.276 264.252L374.021 246.379ZM353.495 132.813L328.329 132.853L321.775 233.51L356.881 241.64L353.495 132.813ZM305.008 229.539L307.915 184.91L287.221 179.876L288.631 225.535L305.008 229.539ZM268.121 112H242.951L236.382 212.779L271.504 221.356L268.121 112ZM205.794 461.437L230.068 469.313V396.083L205.794 388.86V461.437ZM247.054 474.826L273.546 483.427V409.022L247.054 401.138V474.826ZM136.857 439.124L188.809 455.921L188.807 366.082L290.54 396.356V488.944L346.201 508V389.748L137.133 328.447L136.857 439.124ZM209.734 223.799L142.85 312.42L351.469 373.582L425.165 276.345L209.734 223.799ZM443.579 351.552L434.418 292.257L363.195 386.238V504.979L504.085 421.505L504.084 255.376L443.579 351.552Z" fill="#425DB2"/>
<path d="M439 586.5C439 502.814 506.82 435 590.5 435C674.18 435 742 502.814 742 586.5C742 670.174 674.18 738 590.5 738C506.82 738 439 670.174 439 586.5Z" fill="white" stroke="#425EB3" stroke-width="12"/>
<path d="M547.83 643.5V623.273L590.273 586.114C593.455 583.235 596.163 580.602 598.398 578.216C600.633 575.792 602.337 573.367 603.511 570.943C604.686 568.481 605.273 565.811 605.273 562.932C605.273 559.712 604.572 556.966 603.17 554.693C601.769 552.383 599.837 550.602 597.375 549.352C594.913 548.102 592.091 547.477 588.909 547.477C585.689 547.477 582.867 548.14 580.443 549.466C578.019 550.754 576.125 552.629 574.761 555.091C573.436 557.553 572.773 560.545 572.773 564.068H546.125C546.125 556.152 547.905 549.314 551.466 543.557C555.027 537.799 560.027 533.367 566.466 530.261C572.943 527.117 580.462 525.545 589.023 525.545C597.848 525.545 605.519 527.023 612.034 529.977C618.549 532.932 623.587 537.061 627.148 542.364C630.746 547.629 632.545 553.746 632.545 560.716C632.545 565.148 631.655 569.542 629.875 573.898C628.095 578.254 624.894 583.064 620.273 588.33C615.689 593.595 609.174 599.902 600.727 607.25L586.807 620.091V620.83H633.966V643.5H547.83Z" fill="#425DB2"/>
<path d="M373.164 246.379L371.742 200.638L498.244 231.391L452.566 304.008L446.42 264.252L373.164 246.379ZM352.638 132.813L327.472 132.853L320.918 233.51L356.024 241.64L352.638 132.813ZM304.152 229.539L307.058 184.91L286.364 179.876L287.774 225.535L304.152 229.539ZM267.264 112H242.094L235.525 212.779L270.647 221.356L267.264 112ZM204.937 461.437L229.211 469.313V396.083L204.937 388.86V461.437ZM246.197 474.826L272.69 483.427V409.022L246.197 401.138V474.826ZM136 439.124L187.952 455.921L187.951 366.082L289.683 396.356V488.944L345.344 508V389.748L136.276 328.447L136 439.124ZM208.877 223.799L141.993 312.42L350.612 373.582L424.308 276.345L208.877 223.799ZM442.722 351.552L433.562 292.257L362.338 386.238V504.979L503.228 421.505L503.227 255.376L442.722 351.552Z" fill="white"/>
</svg>
