<svg width="800" height="800" viewBox="0 0 800 800" fill="none" xmlns="http://www.w3.org/2000/svg">
<path fill-rule="evenodd" clip-rule="evenodd" d="M621.273 89.9C496.307 -29.9667 293.693 -29.9667 168.727 89.9C53.6666 200.26 43.2733 375.873 144.571 498.02L394.997 799.993L645.424 498.02C746.717 375.873 736.324 200.26 621.268 89.9H621.273Z" fill="#425DB2"/>
<path d="M449.019 246.379L447.597 200.638L574.099 231.391L528.421 304.008L522.274 264.252L449.019 246.379ZM428.493 132.813L403.327 132.853L396.773 233.51L431.879 241.64L428.493 132.813ZM380.006 229.539L382.913 184.91L362.218 179.876L363.629 225.535L380.006 229.539ZM343.119 112H317.949L311.38 212.779L346.502 221.356L343.119 112ZM280.792 461.437L305.066 469.313V396.083L280.792 388.86V461.437ZM322.052 474.826L348.544 483.427V409.022L322.052 401.138V474.826ZM211.855 439.124L263.807 455.921L263.805 366.082L365.538 396.356V488.944L421.199 508V389.748L212.131 328.447L211.855 439.124ZM284.732 223.799L217.847 312.42L426.467 373.582L500.162 276.345L284.732 223.799ZM518.576 351.552L509.416 292.257L438.192 386.238V504.979L579.083 421.505L579.081 255.376L518.576 351.552Z" fill="white"/>
</svg>
