<svg width="752" height="800" viewBox="0 0 752 800" fill="none" xmlns="http://www.w3.org/2000/svg">
<path fill-rule="evenodd" clip-rule="evenodd" d="M546.275 89.9C421.309 -29.9667 218.695 -29.9667 93.7288 89.9C-21.3312 200.26 -31.7246 375.873 69.5728 498.02L319.999 799.993L436.736 659.228C429.797 640.808 426 620.848 426 600C426 507.2 501.207 432 594 432C600.029 432 605.983 432.317 611.847 432.936C665.334 319.064 642.121 181.839 546.27 89.9H546.275ZM374.021 246.379L372.599 200.638L499.101 231.391L453.423 304.008L447.276 264.252L374.021 246.379ZM353.495 132.813L328.329 132.853L321.775 233.51L356.881 241.64L353.495 132.813ZM305.008 229.539L307.915 184.91L287.221 179.876L288.631 225.535L305.008 229.539ZM268.121 112H242.951L236.382 212.779L271.504 221.356L268.121 112ZM205.794 461.437L230.068 469.313V396.083L205.794 388.86V461.437ZM247.054 474.826L273.546 483.427V409.022L247.054 401.138V474.826ZM136.857 439.124L188.809 455.921L188.807 366.082L290.54 396.356V488.944L346.201 508V389.748L137.133 328.447L136.857 439.124ZM209.734 223.799L142.85 312.42L351.469 373.582L425.165 276.345L209.734 223.799ZM443.579 351.552L434.418 292.257L363.195 386.238V504.979L504.085 421.505L504.084 255.376L443.579 351.552Z" fill="#425DB2"/>
<path d="M455 603.2C455 522.994 520 458 600.2 458C680.4 458 745.4 522.994 745.4 603.2C745.4 683.394 680.4 748.4 600.2 748.4C520 748.4 455 683.394 455 603.2Z" fill="white" stroke="#425EB3" stroke-width="12"/>
<path d="M559.258 659V639.531L600.109 603.766C603.172 600.995 605.779 598.461 607.93 596.164C610.081 593.831 611.721 591.497 612.852 589.164C613.982 586.794 614.547 584.224 614.547 581.453C614.547 578.354 613.872 575.711 612.523 573.523C611.174 571.299 609.315 569.586 606.945 568.383C604.576 567.18 601.859 566.578 598.797 566.578C595.698 566.578 592.982 567.216 590.648 568.492C588.315 569.732 586.492 571.536 585.18 573.906C583.904 576.276 583.266 579.156 583.266 582.547H557.617C557.617 574.927 559.331 568.346 562.758 562.805C566.185 557.263 570.997 552.997 577.195 550.008C583.43 546.982 590.667 545.469 598.906 545.469C607.401 545.469 614.784 546.891 621.055 549.734C627.326 552.578 632.174 556.552 635.602 561.656C639.065 566.724 640.797 572.612 640.797 579.32C640.797 583.586 639.94 587.815 638.227 592.008C636.513 596.201 633.432 600.831 628.984 605.898C624.573 610.966 618.302 617.036 610.172 624.109L596.773 636.469V637.18H642.164V659H559.258Z" fill="#425DB2"/>
<path d="M373.164 246.379L371.742 200.638L498.244 231.391L452.566 304.008L446.42 264.252L373.164 246.379ZM352.638 132.813L327.472 132.853L320.918 233.51L356.024 241.64L352.638 132.813ZM304.152 229.539L307.058 184.91L286.364 179.876L287.774 225.535L304.152 229.539ZM267.264 112H242.094L235.525 212.779L270.647 221.356L267.264 112ZM204.937 461.437L229.211 469.313V396.083L204.937 388.86V461.437ZM246.197 474.826L272.69 483.427V409.022L246.197 401.138V474.826ZM136 439.124L187.952 455.921L187.951 366.082L289.683 396.356V488.944L345.344 508V389.748L136.276 328.447L136 439.124ZM208.877 223.799L141.993 312.42L350.612 373.582L424.308 276.345L208.877 223.799ZM442.722 351.552L433.562 292.257L362.338 386.238V504.979L503.228 421.505L503.227 255.376L442.722 351.552Z" fill="white"/>
</svg>
