<svg width="752" height="800" viewBox="0 0 752 800" fill="none" xmlns="http://www.w3.org/2000/svg">
<path fill-rule="evenodd" clip-rule="evenodd" d="M546.275 89.9C421.309 -29.9667 218.695 -29.9667 93.7288 89.9C-21.3312 200.26 -31.7246 375.873 69.5728 498.02L319.999 799.993L436.736 659.228C429.797 640.808 426 620.848 426 600C426 507.2 501.207 432 594 432C600.029 432 605.983 432.317 611.847 432.936C665.334 319.064 642.121 181.839 546.27 89.9H546.275ZM374.021 246.379L372.599 200.638L499.101 231.391L453.423 304.008L447.276 264.252L374.021 246.379ZM353.495 132.813L328.329 132.853L321.775 233.51L356.881 241.64L353.495 132.813ZM305.008 229.539L307.915 184.91L287.221 179.876L288.631 225.535L305.008 229.539ZM268.121 112H242.951L236.382 212.779L271.504 221.356L268.121 112ZM205.794 461.437L230.068 469.313V396.083L205.794 388.86V461.437ZM247.054 474.826L273.546 483.427V409.022L247.054 401.138V474.826ZM136.857 439.124L188.809 455.921L188.807 366.082L290.54 396.356V488.944L346.201 508V389.748L137.133 328.447L136.857 439.124ZM209.734 223.799L142.85 312.42L351.469 373.582L425.165 276.345L209.734 223.799ZM443.579 351.552L434.418 292.257L363.195 386.238V504.979L504.085 421.505L504.084 255.376L443.579 351.552Z" fill="#425DB2"/>
<path d="M455 603.2C455 522.994 520 458 600.2 458C680.4 458 745.4 522.994 745.4 603.2C745.4 683.394 680.4 748.4 600.2 748.4C520 748.4 455 683.394 455 603.2Z" fill="white" stroke="#425EB3" stroke-width="12"/>
<path d="M545.859 661.531C537.328 661.531 529.763 660.073 523.164 657.156C516.602 654.203 511.424 650.138 507.633 644.961C503.841 639.784 501.909 633.823 501.836 627.078H529.07C529.18 629.521 529.964 631.69 531.422 633.586C532.88 635.445 534.867 636.904 537.383 637.961C539.898 639.018 542.76 639.547 545.969 639.547C549.177 639.547 552.003 638.982 554.445 637.852C556.924 636.685 558.857 635.099 560.242 633.094C561.628 631.052 562.302 628.719 562.266 626.094C562.302 623.469 561.555 621.135 560.023 619.094C558.492 617.052 556.323 615.466 553.516 614.336C550.745 613.206 547.464 612.641 543.672 612.641H532.789V593.391H543.672C546.99 593.391 549.906 592.844 552.422 591.75C554.974 590.656 556.961 589.125 558.383 587.156C559.805 585.151 560.497 582.854 560.461 580.266C560.497 577.75 559.896 575.544 558.656 573.648C557.453 571.716 555.758 570.221 553.57 569.164C551.419 568.107 548.922 567.578 546.078 567.578C543.089 567.578 540.372 568.107 537.93 569.164C535.523 570.221 533.609 571.716 532.188 573.648C530.766 575.581 530.018 577.823 529.945 580.375H504.078C504.151 573.703 506.01 567.833 509.656 562.766C513.302 557.661 518.26 553.669 524.531 550.789C530.839 547.909 538.021 546.469 546.078 546.469C554.099 546.469 561.154 547.872 567.242 550.68C573.331 553.487 578.07 557.315 581.461 562.164C584.852 566.977 586.547 572.427 586.547 578.516C586.583 584.823 584.523 590.018 580.367 594.102C576.247 598.185 570.943 600.701 564.453 601.648V602.523C573.13 603.544 579.674 606.352 584.086 610.945C588.534 615.539 590.74 621.281 590.703 628.172C590.703 634.661 588.789 640.422 584.961 645.453C581.169 650.448 575.883 654.385 569.102 657.266C562.357 660.109 554.609 661.531 545.859 661.531ZM639.553 643.812V564.625H661.592V643.812H639.553ZM610.951 615.266V593.172H690.139V615.266H610.951Z" fill="#425DB2"/>
<path d="M373.164 246.379L371.742 200.638L498.244 231.391L452.566 304.008L446.42 264.252L373.164 246.379ZM352.638 132.813L327.472 132.853L320.918 233.51L356.024 241.64L352.638 132.813ZM304.152 229.539L307.058 184.91L286.364 179.876L287.774 225.535L304.152 229.539ZM267.264 112H242.094L235.525 212.779L270.647 221.356L267.264 112ZM204.937 461.437L229.211 469.313V396.083L204.937 388.86V461.437ZM246.197 474.826L272.69 483.427V409.022L246.197 401.138V474.826ZM136 439.124L187.952 455.921L187.951 366.082L289.683 396.356V488.944L345.344 508V389.748L136.276 328.447L136 439.124ZM208.877 223.799L141.993 312.42L350.612 373.582L424.308 276.345L208.877 223.799ZM442.722 351.552L433.562 292.257L362.338 386.238V504.979L503.228 421.505L503.227 255.376L442.722 351.552Z" fill="white"/>
</svg>
