<svg width="748" height="800" viewBox="0 0 748 800" fill="none" xmlns="http://www.w3.org/2000/svg">
<path fill-rule="evenodd" clip-rule="evenodd" d="M546.275 89.9C421.309 -29.9667 218.695 -29.9667 93.7288 89.9C-21.3312 200.26 -31.7246 375.873 69.5728 498.02L319.999 799.993L433.472 663.164C422.908 640.825 417 615.853 417 589.5C417 494.214 494.221 417 589.5 417C599.151 417 608.617 417.792 617.836 419.315C663.383 308.277 638.329 178.201 546.27 89.9H546.275ZM374.021 246.379L372.599 200.638L499.101 231.391L453.423 304.008L447.276 264.252L374.021 246.379ZM353.495 132.813L328.329 132.853L321.775 233.51L356.881 241.64L353.495 132.813ZM305.008 229.539L307.915 184.91L287.221 179.876L288.631 225.535L305.008 229.539ZM268.121 112H242.951L236.382 212.779L271.504 221.356L268.121 112ZM205.794 461.437L230.068 469.313V396.083L205.794 388.86V461.437ZM247.054 474.826L273.546 483.427V409.022L247.054 401.138V474.826ZM136.857 439.124L188.809 455.921L188.807 366.082L290.54 396.356V488.944L346.201 508V389.748L137.133 328.447L136.857 439.124ZM209.734 223.799L142.85 312.42L351.469 373.582L425.165 276.345L209.734 223.799ZM443.579 351.552L434.418 292.257L363.195 386.238V504.979L504.085 421.505L504.084 255.376L443.579 351.552Z" fill="#425DB2"/>
<path d="M439 586.5C439 502.814 506.82 435 590.5 435C674.18 435 742 502.814 742 586.5C742 670.174 674.18 738 590.5 738C506.82 738 439 670.174 439 586.5Z" fill="white" stroke="#425EB3" stroke-width="12"/>
<path d="M534.182 646.591C525.015 646.591 516.871 645.019 509.75 641.875C502.667 638.693 497.098 634.318 493.045 628.75C488.992 623.182 486.947 616.78 486.909 609.545H518.727C518.765 611.78 519.447 613.788 520.773 615.568C522.136 617.311 523.992 618.674 526.341 619.659C528.689 620.644 531.379 621.136 534.409 621.136C537.326 621.136 539.902 620.625 542.136 619.602C544.371 618.542 546.114 617.083 547.364 615.227C548.614 613.371 549.22 611.25 549.182 608.864C549.22 606.515 548.5 604.432 547.023 602.614C545.583 600.795 543.557 599.375 540.943 598.352C538.33 597.33 535.318 596.818 531.909 596.818H520.091V575H531.909C535.053 575 537.818 574.489 540.205 573.466C542.629 572.443 544.504 571.023 545.83 569.205C547.193 567.386 547.856 565.303 547.818 562.955C547.856 560.682 547.307 558.674 546.17 556.932C545.034 555.189 543.443 553.826 541.398 552.841C539.39 551.856 537.061 551.364 534.409 551.364C531.53 551.364 528.955 551.875 526.682 552.898C524.447 553.92 522.686 555.341 521.398 557.159C520.11 558.977 519.447 561.061 519.409 563.409H489.182C489.22 556.288 491.17 550 495.034 544.545C498.936 539.091 504.277 534.811 511.057 531.705C517.837 528.598 525.621 527.045 534.409 527.045C543.008 527.045 550.602 528.504 557.193 531.42C563.822 534.337 568.992 538.352 572.705 543.466C576.455 548.542 578.311 554.356 578.273 560.909C578.348 567.424 576.114 572.765 571.568 576.932C567.061 581.098 561.341 583.561 554.409 584.318V585.227C563.803 586.25 570.867 589.129 575.602 593.864C580.337 598.561 582.667 604.47 582.591 611.591C582.629 618.409 580.583 624.451 576.455 629.716C572.364 634.981 566.663 639.11 559.352 642.102C552.08 645.095 543.689 646.591 534.182 646.591ZM631.696 629.091V545H657.151V629.091H631.696ZM602.378 599.773V574.318H686.469V599.773H602.378Z" fill="#425DB2"/>
<path d="M373.164 246.379L371.742 200.638L498.244 231.391L452.566 304.008L446.42 264.252L373.164 246.379ZM352.638 132.813L327.472 132.853L320.918 233.51L356.024 241.64L352.638 132.813ZM304.152 229.539L307.058 184.91L286.364 179.876L287.774 225.535L304.152 229.539ZM267.264 112H242.094L235.525 212.779L270.647 221.356L267.264 112ZM204.937 461.437L229.211 469.313V396.083L204.937 388.86V461.437ZM246.197 474.826L272.69 483.427V409.022L246.197 401.138V474.826ZM136 439.124L187.952 455.921L187.951 366.082L289.683 396.356V488.944L345.344 508V389.748L136.276 328.447L136 439.124ZM208.877 223.799L141.993 312.42L350.612 373.582L424.308 276.345L208.877 223.799ZM442.722 351.552L433.562 292.257L362.338 386.238V504.979L503.228 421.505L503.227 255.376L442.722 351.552Z" fill="white"/>
</svg>
